<mxfile host="app.diagrams.net" modified="2024-03-20T08:20:55.113Z" agent="Mozilla/5.0 (Windows NT 10.0; Win64; x64) AppleWebKit/537.36 (KHTML, like Gecko) Chrome/122.0.0.0 Safari/537.36 Edg/122.0.0.0" etag="yGZfBlKlDvIb5achbDFr" version="24.0.7" type="github">
  <diagram name="第 1 页" id="TnP6nja6smuP0p-oWf90">
    <mxGraphModel dx="1262" dy="714" grid="1" gridSize="10" guides="1" tooltips="1" connect="1" arrows="1" fold="1" page="1" pageScale="1" pageWidth="827" pageHeight="1169" math="1" shadow="0">
      <root>
        <mxCell id="0" />
        <mxCell id="1" parent="0" />
        <mxCell id="sZdEJVB9sNK9TB-2Sg2r-113" value="" style="rounded=0;whiteSpace=wrap;html=1;fillColor=#fff2cc;strokeColor=#d6b656;" vertex="1" parent="1">
          <mxGeometry x="350" y="230" width="350" height="530" as="geometry" />
        </mxCell>
        <mxCell id="sZdEJVB9sNK9TB-2Sg2r-1" value="文本嵌入" style="rounded=1;whiteSpace=wrap;html=1;fillColor=#ffe6cc;strokeColor=#d79b00;" vertex="1" parent="1">
          <mxGeometry x="145" y="610" width="85" height="20" as="geometry" />
        </mxCell>
        <mxCell id="sZdEJVB9sNK9TB-2Sg2r-3" value="文本序列" style="text;html=1;align=center;verticalAlign=middle;whiteSpace=wrap;rounded=0;" vertex="1" parent="1">
          <mxGeometry x="157.5" y="700" width="60" height="30" as="geometry" />
        </mxCell>
        <mxCell id="sZdEJVB9sNK9TB-2Sg2r-8" value="" style="edgeStyle=orthogonalEdgeStyle;rounded=0;orthogonalLoop=1;jettySize=auto;html=1;exitX=0.5;exitY=0;exitDx=0;exitDy=0;entryX=0.5;entryY=1;entryDx=0;entryDy=0;" edge="1" parent="1" source="sZdEJVB9sNK9TB-2Sg2r-1" target="sZdEJVB9sNK9TB-2Sg2r-7">
          <mxGeometry relative="1" as="geometry">
            <mxPoint x="370" y="615" as="sourcePoint" />
            <mxPoint x="370" y="530" as="targetPoint" />
          </mxGeometry>
        </mxCell>
        <mxCell id="sZdEJVB9sNK9TB-2Sg2r-5" value="分词" style="text;html=1;align=center;verticalAlign=middle;whiteSpace=wrap;rounded=0;" vertex="1" parent="1">
          <mxGeometry x="165" y="650" width="45" height="30" as="geometry" />
        </mxCell>
        <mxCell id="sZdEJVB9sNK9TB-2Sg2r-6" value="" style="endArrow=classic;html=1;rounded=0;exitX=0.5;exitY=0;exitDx=0;exitDy=0;entryX=0.5;entryY=1;entryDx=0;entryDy=0;" edge="1" parent="1" source="sZdEJVB9sNK9TB-2Sg2r-5" target="sZdEJVB9sNK9TB-2Sg2r-1">
          <mxGeometry width="50" height="50" relative="1" as="geometry">
            <mxPoint x="340" y="580" as="sourcePoint" />
            <mxPoint x="390" y="530" as="targetPoint" />
          </mxGeometry>
        </mxCell>
        <mxCell id="sZdEJVB9sNK9TB-2Sg2r-7" value="Transformer块" style="rounded=1;whiteSpace=wrap;html=1;fillColor=#f8cecc;strokeColor=#b85450;" vertex="1" parent="1">
          <mxGeometry x="145" y="560" width="85" height="20" as="geometry" />
        </mxCell>
        <mxCell id="sZdEJVB9sNK9TB-2Sg2r-9" value="Transformer块" style="rounded=1;whiteSpace=wrap;html=1;fillColor=#f8cecc;strokeColor=#b85450;" vertex="1" parent="1">
          <mxGeometry x="145" y="470" width="85" height="20" as="geometry" />
        </mxCell>
        <mxCell id="sZdEJVB9sNK9TB-2Sg2r-10" value="" style="edgeStyle=orthogonalEdgeStyle;rounded=0;orthogonalLoop=1;jettySize=auto;html=1;exitX=0.5;exitY=0;exitDx=0;exitDy=0;" edge="1" parent="1">
          <mxGeometry relative="1" as="geometry">
            <mxPoint x="187.3" y="550" as="sourcePoint" />
            <mxPoint x="187" y="530" as="targetPoint" />
          </mxGeometry>
        </mxCell>
        <mxCell id="sZdEJVB9sNK9TB-2Sg2r-11" value="" style="endArrow=none;dashed=1;html=1;dashPattern=1 3;strokeWidth=2;rounded=0;" edge="1" parent="1">
          <mxGeometry width="50" height="50" relative="1" as="geometry">
            <mxPoint x="157.5" y="520" as="sourcePoint" />
            <mxPoint x="217.5" y="520" as="targetPoint" />
          </mxGeometry>
        </mxCell>
        <mxCell id="sZdEJVB9sNK9TB-2Sg2r-12" value="" style="edgeStyle=orthogonalEdgeStyle;rounded=0;orthogonalLoop=1;jettySize=auto;html=1;entryX=0.5;entryY=1;entryDx=0;entryDy=0;" edge="1" parent="1">
          <mxGeometry relative="1" as="geometry">
            <mxPoint x="187" y="510" as="sourcePoint" />
            <mxPoint x="187.3" y="490" as="targetPoint" />
          </mxGeometry>
        </mxCell>
        <mxCell id="sZdEJVB9sNK9TB-2Sg2r-15" value="RMS归一化" style="rounded=1;whiteSpace=wrap;html=1;fillColor=#e1d5e7;strokeColor=#9673a6;" vertex="1" parent="1">
          <mxGeometry x="145" y="420" width="85" height="20" as="geometry" />
        </mxCell>
        <mxCell id="sZdEJVB9sNK9TB-2Sg2r-17" value="线性层" style="rounded=1;whiteSpace=wrap;html=1;fillColor=#dae8fc;strokeColor=#6c8ebf;" vertex="1" parent="1">
          <mxGeometry x="145" y="370" width="85" height="20" as="geometry" />
        </mxCell>
        <mxCell id="sZdEJVB9sNK9TB-2Sg2r-18" value="Softmax" style="rounded=1;whiteSpace=wrap;html=1;fillColor=#d5e8d4;strokeColor=#82b366;" vertex="1" parent="1">
          <mxGeometry x="145" y="320" width="85" height="20" as="geometry" />
        </mxCell>
        <mxCell id="sZdEJVB9sNK9TB-2Sg2r-19" value="" style="edgeStyle=orthogonalEdgeStyle;rounded=0;orthogonalLoop=1;jettySize=auto;html=1;exitX=0.5;exitY=0;exitDx=0;exitDy=0;entryX=0.5;entryY=1;entryDx=0;entryDy=0;" edge="1" parent="1" source="sZdEJVB9sNK9TB-2Sg2r-15" target="sZdEJVB9sNK9TB-2Sg2r-17">
          <mxGeometry relative="1" as="geometry">
            <mxPoint x="330" y="305" as="sourcePoint" />
            <mxPoint x="330.29" y="270" as="targetPoint" />
          </mxGeometry>
        </mxCell>
        <mxCell id="sZdEJVB9sNK9TB-2Sg2r-20" value="" style="edgeStyle=orthogonalEdgeStyle;rounded=0;orthogonalLoop=1;jettySize=auto;html=1;exitX=0.5;exitY=0;exitDx=0;exitDy=0;entryX=0.5;entryY=1;entryDx=0;entryDy=0;" edge="1" parent="1" source="sZdEJVB9sNK9TB-2Sg2r-17" target="sZdEJVB9sNK9TB-2Sg2r-18">
          <mxGeometry relative="1" as="geometry">
            <mxPoint x="205" y="330" as="sourcePoint" />
            <mxPoint x="205" y="305" as="targetPoint" />
          </mxGeometry>
        </mxCell>
        <mxCell id="sZdEJVB9sNK9TB-2Sg2r-21" value="" style="shape=crossbar;whiteSpace=wrap;html=1;rounded=1;direction=south;" vertex="1" parent="1">
          <mxGeometry x="120" y="460" width="20" height="120" as="geometry" />
        </mxCell>
        <mxCell id="sZdEJVB9sNK9TB-2Sg2r-28" value="" style="edgeStyle=orthogonalEdgeStyle;rounded=0;orthogonalLoop=1;jettySize=auto;html=1;exitX=0.5;exitY=0;exitDx=0;exitDy=0;entryX=0.5;entryY=1;entryDx=0;entryDy=0;" edge="1" parent="1" source="sZdEJVB9sNK9TB-2Sg2r-9" target="sZdEJVB9sNK9TB-2Sg2r-15">
          <mxGeometry relative="1" as="geometry">
            <mxPoint x="187.3" y="450" as="sourcePoint" />
            <mxPoint x="187.3" y="420" as="targetPoint" />
          </mxGeometry>
        </mxCell>
        <mxCell id="sZdEJVB9sNK9TB-2Sg2r-31" style="edgeStyle=orthogonalEdgeStyle;rounded=0;orthogonalLoop=1;jettySize=auto;html=1;exitX=1;exitY=0.5;exitDx=0;exitDy=0;exitPerimeter=0;entryX=0.928;entryY=0.498;entryDx=0;entryDy=0;entryPerimeter=0;" edge="1" parent="1" source="sZdEJVB9sNK9TB-2Sg2r-21" target="sZdEJVB9sNK9TB-2Sg2r-21">
          <mxGeometry relative="1" as="geometry" />
        </mxCell>
        <mxCell id="sZdEJVB9sNK9TB-2Sg2r-32" value="`\times n`" style="text;html=1;align=center;verticalAlign=middle;resizable=0;points=[];autosize=1;strokeColor=none;fillColor=none;" vertex="1" parent="1">
          <mxGeometry x="75" y="505" width="70" height="30" as="geometry" />
        </mxCell>
        <mxCell id="sZdEJVB9sNK9TB-2Sg2r-34" value="" style="endArrow=none;html=1;rounded=0;exitX=1;exitY=0;exitDx=0;exitDy=0;entryX=0;entryY=0;entryDx=0;entryDy=0;" edge="1" parent="1" source="sZdEJVB9sNK9TB-2Sg2r-7" target="sZdEJVB9sNK9TB-2Sg2r-113">
          <mxGeometry width="50" height="50" relative="1" as="geometry">
            <mxPoint x="430" y="560" as="sourcePoint" />
            <mxPoint x="320" y="210" as="targetPoint" />
          </mxGeometry>
        </mxCell>
        <mxCell id="sZdEJVB9sNK9TB-2Sg2r-35" value="" style="endArrow=none;html=1;rounded=0;exitX=1;exitY=1;exitDx=0;exitDy=0;entryX=0;entryY=1;entryDx=0;entryDy=0;" edge="1" parent="1" source="sZdEJVB9sNK9TB-2Sg2r-7" target="sZdEJVB9sNK9TB-2Sg2r-113">
          <mxGeometry width="50" height="50" relative="1" as="geometry">
            <mxPoint x="240" y="560" as="sourcePoint" />
            <mxPoint x="310" y="770" as="targetPoint" />
          </mxGeometry>
        </mxCell>
        <mxCell id="sZdEJVB9sNK9TB-2Sg2r-39" value="" style="endArrow=classic;html=1;rounded=0;exitX=0.46;exitY=0.001;exitDx=0;exitDy=0;exitPerimeter=0;" edge="1" parent="1" source="sZdEJVB9sNK9TB-2Sg2r-53">
          <mxGeometry width="50" height="50" relative="1" as="geometry">
            <mxPoint x="502" y="760" as="sourcePoint" />
            <mxPoint x="502.1614285714285" y="730" as="targetPoint" />
          </mxGeometry>
        </mxCell>
        <mxCell id="sZdEJVB9sNK9TB-2Sg2r-40" value="RMS归一化" style="rounded=1;whiteSpace=wrap;html=1;fillColor=#e1d5e7;strokeColor=#9673a6;" vertex="1" parent="1">
          <mxGeometry x="460" y="710" width="85" height="20" as="geometry" />
        </mxCell>
        <mxCell id="sZdEJVB9sNK9TB-2Sg2r-44" value="" style="edgeStyle=orthogonalEdgeStyle;rounded=0;orthogonalLoop=1;jettySize=auto;html=1;exitX=0.5;exitY=0;exitDx=0;exitDy=0;" edge="1" parent="1">
          <mxGeometry relative="1" as="geometry">
            <mxPoint x="187.46" y="700" as="sourcePoint" />
            <mxPoint x="187.16" y="680" as="targetPoint" />
          </mxGeometry>
        </mxCell>
        <mxCell id="sZdEJVB9sNK9TB-2Sg2r-45" value="" style="edgeStyle=orthogonalEdgeStyle;rounded=0;orthogonalLoop=1;jettySize=auto;html=1;exitX=0.5;exitY=0;exitDx=0;exitDy=0;entryX=0.5;entryY=1;entryDx=0;entryDy=0;" edge="1" parent="1" source="sZdEJVB9sNK9TB-2Sg2r-40" target="sZdEJVB9sNK9TB-2Sg2r-48">
          <mxGeometry relative="1" as="geometry">
            <mxPoint x="320.3" y="750" as="sourcePoint" />
            <mxPoint x="502.4999999999998" y="690" as="targetPoint" />
          </mxGeometry>
        </mxCell>
        <mxCell id="sZdEJVB9sNK9TB-2Sg2r-47" value="线性层Q" style="rounded=1;whiteSpace=wrap;html=1;fillColor=#dae8fc;strokeColor=#6c8ebf;" vertex="1" parent="1">
          <mxGeometry x="414.5" y="670" width="50" height="20" as="geometry" />
        </mxCell>
        <mxCell id="sZdEJVB9sNK9TB-2Sg2r-48" value="线性层K" style="rounded=1;whiteSpace=wrap;html=1;fillColor=#dae8fc;strokeColor=#6c8ebf;" vertex="1" parent="1">
          <mxGeometry x="478.62" y="670" width="47.75" height="20" as="geometry" />
        </mxCell>
        <mxCell id="sZdEJVB9sNK9TB-2Sg2r-49" value="线性层V" style="rounded=1;whiteSpace=wrap;html=1;fillColor=#dae8fc;strokeColor=#6c8ebf;" vertex="1" parent="1">
          <mxGeometry x="545" y="670" width="50" height="20" as="geometry" />
        </mxCell>
        <mxCell id="sZdEJVB9sNK9TB-2Sg2r-53" value="输入序列`x`" style="text;html=1;align=center;verticalAlign=middle;resizable=0;points=[];autosize=1;strokeColor=none;fillColor=none;" vertex="1" parent="1">
          <mxGeometry x="460" y="760" width="90" height="30" as="geometry" />
        </mxCell>
        <mxCell id="sZdEJVB9sNK9TB-2Sg2r-57" value="" style="endArrow=classic;html=1;rounded=0;entryX=0.5;entryY=1;entryDx=0;entryDy=0;exitX=0.5;exitY=0;exitDx=0;exitDy=0;" edge="1" parent="1" source="sZdEJVB9sNK9TB-2Sg2r-40" target="sZdEJVB9sNK9TB-2Sg2r-47">
          <mxGeometry width="50" height="50" relative="1" as="geometry">
            <mxPoint x="512.1600000000001" y="780" as="sourcePoint" />
            <mxPoint x="512.1614285714285" y="740" as="targetPoint" />
          </mxGeometry>
        </mxCell>
        <mxCell id="sZdEJVB9sNK9TB-2Sg2r-58" value="" style="endArrow=classic;html=1;rounded=0;entryX=0.5;entryY=1;entryDx=0;entryDy=0;exitX=0.5;exitY=0;exitDx=0;exitDy=0;" edge="1" parent="1" source="sZdEJVB9sNK9TB-2Sg2r-40" target="sZdEJVB9sNK9TB-2Sg2r-49">
          <mxGeometry width="50" height="50" relative="1" as="geometry">
            <mxPoint x="522.1600000000001" y="790" as="sourcePoint" />
            <mxPoint x="522.1614285714285" y="750" as="targetPoint" />
          </mxGeometry>
        </mxCell>
        <mxCell id="sZdEJVB9sNK9TB-2Sg2r-59" value="" style="endArrow=classic;html=1;rounded=0;exitX=0.5;exitY=0;exitDx=0;exitDy=0;entryX=0.5;entryY=1;entryDx=0;entryDy=0;" edge="1" parent="1" source="sZdEJVB9sNK9TB-2Sg2r-47" target="sZdEJVB9sNK9TB-2Sg2r-60">
          <mxGeometry width="50" height="50" relative="1" as="geometry">
            <mxPoint x="349" y="785" as="sourcePoint" />
            <mxPoint x="453" y="630" as="targetPoint" />
          </mxGeometry>
        </mxCell>
        <mxCell id="sZdEJVB9sNK9TB-2Sg2r-60" value="ROPE" style="rounded=1;whiteSpace=wrap;html=1;fillColor=#e1d5e7;strokeColor=#9673a6;" vertex="1" parent="1">
          <mxGeometry x="420" y="630" width="40" height="20" as="geometry" />
        </mxCell>
        <mxCell id="sZdEJVB9sNK9TB-2Sg2r-61" value="" style="endArrow=classic;html=1;rounded=0;exitX=0.5;exitY=0;exitDx=0;exitDy=0;entryX=0.5;entryY=1;entryDx=0;entryDy=0;" edge="1" parent="1" target="sZdEJVB9sNK9TB-2Sg2r-62" source="sZdEJVB9sNK9TB-2Sg2r-48">
          <mxGeometry width="50" height="50" relative="1" as="geometry">
            <mxPoint x="506.87" y="615" as="sourcePoint" />
            <mxPoint x="506.87" y="590" as="targetPoint" />
          </mxGeometry>
        </mxCell>
        <mxCell id="sZdEJVB9sNK9TB-2Sg2r-62" value="ROPE" style="rounded=1;whiteSpace=wrap;html=1;fillColor=#e1d5e7;strokeColor=#9673a6;" vertex="1" parent="1">
          <mxGeometry x="482.5" y="630" width="40" height="20" as="geometry" />
        </mxCell>
        <mxCell id="sZdEJVB9sNK9TB-2Sg2r-64" value="" style="endArrow=classic;html=1;rounded=0;exitX=0.5;exitY=0;exitDx=0;exitDy=0;entryX=0.174;entryY=0.864;entryDx=0;entryDy=0;entryPerimeter=0;" edge="1" parent="1" source="sZdEJVB9sNK9TB-2Sg2r-60" target="sZdEJVB9sNK9TB-2Sg2r-66">
          <mxGeometry width="50" height="50" relative="1" as="geometry">
            <mxPoint x="430" y="560" as="sourcePoint" />
            <mxPoint x="480" y="590" as="targetPoint" />
          </mxGeometry>
        </mxCell>
        <mxCell id="sZdEJVB9sNK9TB-2Sg2r-65" value="" style="endArrow=classic;html=1;rounded=0;exitX=0.5;exitY=0;exitDx=0;exitDy=0;entryX=0.5;entryY=1;entryDx=0;entryDy=0;entryPerimeter=0;" edge="1" parent="1" source="sZdEJVB9sNK9TB-2Sg2r-62" target="sZdEJVB9sNK9TB-2Sg2r-66">
          <mxGeometry width="50" height="50" relative="1" as="geometry">
            <mxPoint x="502.72" y="610" as="sourcePoint" />
            <mxPoint x="503" y="590" as="targetPoint" />
          </mxGeometry>
        </mxCell>
        <mxCell id="sZdEJVB9sNK9TB-2Sg2r-66" value="" style="verticalLabelPosition=bottom;shadow=0;dashed=0;align=center;html=1;verticalAlign=top;shape=mxgraph.electrical.abstract.multiplier;" vertex="1" parent="1">
          <mxGeometry x="489.99" y="589" width="23" height="23" as="geometry" />
        </mxCell>
        <mxCell id="sZdEJVB9sNK9TB-2Sg2r-70" value="&lt;span style=&quot;text-wrap: nowrap;&quot;&gt;掩码矩阵&lt;/span&gt;" style="rounded=0;whiteSpace=wrap;html=1;" vertex="1" parent="1">
          <mxGeometry x="415.5" y="589" width="49" height="20" as="geometry" />
        </mxCell>
        <mxCell id="sZdEJVB9sNK9TB-2Sg2r-71" value="" style="endArrow=classic;html=1;rounded=0;exitX=1;exitY=0.5;exitDx=0;exitDy=0;entryX=0;entryY=0.5;entryDx=0;entryDy=0;entryPerimeter=0;" edge="1" parent="1" source="sZdEJVB9sNK9TB-2Sg2r-70" target="sZdEJVB9sNK9TB-2Sg2r-66">
          <mxGeometry width="50" height="50" relative="1" as="geometry">
            <mxPoint x="450" y="630" as="sourcePoint" />
            <mxPoint x="506" y="603" as="targetPoint" />
          </mxGeometry>
        </mxCell>
        <mxCell id="sZdEJVB9sNK9TB-2Sg2r-73" value="Softmax" style="rounded=1;whiteSpace=wrap;html=1;fillColor=#d5e8d4;strokeColor=#82b366;" vertex="1" parent="1">
          <mxGeometry x="460" y="550" width="85" height="20" as="geometry" />
        </mxCell>
        <mxCell id="sZdEJVB9sNK9TB-2Sg2r-74" value="" style="endArrow=classic;html=1;rounded=0;exitX=0.5;exitY=0;exitDx=0;exitDy=0;entryX=0.5;entryY=1;entryDx=0;entryDy=0;exitPerimeter=0;" edge="1" parent="1" source="sZdEJVB9sNK9TB-2Sg2r-66" target="sZdEJVB9sNK9TB-2Sg2r-73">
          <mxGeometry width="50" height="50" relative="1" as="geometry">
            <mxPoint x="475" y="596" as="sourcePoint" />
            <mxPoint x="502" y="595" as="targetPoint" />
          </mxGeometry>
        </mxCell>
        <mxCell id="sZdEJVB9sNK9TB-2Sg2r-75" value="" style="edgeStyle=elbowEdgeStyle;elbow=vertical;endArrow=classic;html=1;curved=0;rounded=0;endSize=8;startSize=8;exitX=0.5;exitY=0;exitDx=0;exitDy=0;entryX=1;entryY=0.5;entryDx=0;entryDy=0;entryPerimeter=0;" edge="1" parent="1" source="sZdEJVB9sNK9TB-2Sg2r-49" target="sZdEJVB9sNK9TB-2Sg2r-77">
          <mxGeometry width="50" height="50" relative="1" as="geometry">
            <mxPoint x="430" y="560" as="sourcePoint" />
            <mxPoint x="565" y="460" as="targetPoint" />
            <Array as="points">
              <mxPoint x="570" y="520" />
            </Array>
          </mxGeometry>
        </mxCell>
        <mxCell id="sZdEJVB9sNK9TB-2Sg2r-76" value="" style="endArrow=classic;html=1;rounded=0;entryX=0.5;entryY=1;entryDx=0;entryDy=0;entryPerimeter=0;exitX=0.5;exitY=0;exitDx=0;exitDy=0;" edge="1" parent="1" target="sZdEJVB9sNK9TB-2Sg2r-77" source="sZdEJVB9sNK9TB-2Sg2r-73">
          <mxGeometry width="50" height="50" relative="1" as="geometry">
            <mxPoint x="502" y="530" as="sourcePoint" />
            <mxPoint x="503" y="486" as="targetPoint" />
          </mxGeometry>
        </mxCell>
        <mxCell id="sZdEJVB9sNK9TB-2Sg2r-77" value="" style="verticalLabelPosition=bottom;shadow=0;dashed=0;align=center;html=1;verticalAlign=top;shape=mxgraph.electrical.abstract.multiplier;" vertex="1" parent="1">
          <mxGeometry x="491" y="508.5" width="23" height="23" as="geometry" />
        </mxCell>
        <mxCell id="sZdEJVB9sNK9TB-2Sg2r-79" value="线性层" style="rounded=1;whiteSpace=wrap;html=1;fillColor=#dae8fc;strokeColor=#6c8ebf;" vertex="1" parent="1">
          <mxGeometry x="460" y="470" width="85" height="20" as="geometry" />
        </mxCell>
        <mxCell id="sZdEJVB9sNK9TB-2Sg2r-80" value="" style="endArrow=classic;html=1;rounded=0;entryX=0.5;entryY=1;entryDx=0;entryDy=0;exitX=0.5;exitY=0;exitDx=0;exitDy=0;exitPerimeter=0;" edge="1" parent="1" source="sZdEJVB9sNK9TB-2Sg2r-77" target="sZdEJVB9sNK9TB-2Sg2r-79">
          <mxGeometry width="50" height="50" relative="1" as="geometry">
            <mxPoint x="609.5" y="430" as="sourcePoint" />
            <mxPoint x="599.9999999999998" y="350" as="targetPoint" />
          </mxGeometry>
        </mxCell>
        <mxCell id="sZdEJVB9sNK9TB-2Sg2r-81" value="" style="verticalLabelPosition=bottom;verticalAlign=top;html=1;shape=mxgraph.flowchart.summing_function;" vertex="1" parent="1">
          <mxGeometry x="490.99" y="427.01" width="23" height="23" as="geometry" />
        </mxCell>
        <mxCell id="sZdEJVB9sNK9TB-2Sg2r-83" value="" style="endArrow=classic;html=1;rounded=0;entryX=0.5;entryY=1;entryDx=0;entryDy=0;exitX=0.5;exitY=0;exitDx=0;exitDy=0;entryPerimeter=0;" edge="1" parent="1" source="sZdEJVB9sNK9TB-2Sg2r-79" target="sZdEJVB9sNK9TB-2Sg2r-81">
          <mxGeometry width="50" height="50" relative="1" as="geometry">
            <mxPoint x="512" y="519" as="sourcePoint" />
            <mxPoint x="512" y="500" as="targetPoint" />
          </mxGeometry>
        </mxCell>
        <mxCell id="sZdEJVB9sNK9TB-2Sg2r-85" value="" style="edgeStyle=elbowEdgeStyle;elbow=horizontal;endArrow=classic;html=1;curved=0;rounded=0;endSize=8;startSize=8;entryX=1;entryY=0.5;entryDx=0;entryDy=0;entryPerimeter=0;exitX=0.478;exitY=-0.036;exitDx=0;exitDy=0;exitPerimeter=0;" edge="1" parent="1" source="sZdEJVB9sNK9TB-2Sg2r-53" target="sZdEJVB9sNK9TB-2Sg2r-81">
          <mxGeometry width="50" height="50" relative="1" as="geometry">
            <mxPoint x="513" y="758.5" as="sourcePoint" />
            <mxPoint x="525.99" y="440" as="targetPoint" />
            <Array as="points">
              <mxPoint x="650" y="610" />
            </Array>
          </mxGeometry>
        </mxCell>
        <mxCell id="sZdEJVB9sNK9TB-2Sg2r-89" value="RMS归一化" style="rounded=1;whiteSpace=wrap;html=1;fillColor=#e1d5e7;strokeColor=#9673a6;" vertex="1" parent="1">
          <mxGeometry x="459.99" y="390" width="85" height="20" as="geometry" />
        </mxCell>
        <mxCell id="sZdEJVB9sNK9TB-2Sg2r-90" value="" style="endArrow=classic;html=1;rounded=0;entryX=0.5;entryY=1;entryDx=0;entryDy=0;exitX=0.5;exitY=0;exitDx=0;exitDy=0;exitPerimeter=0;" edge="1" parent="1" source="sZdEJVB9sNK9TB-2Sg2r-81" target="sZdEJVB9sNK9TB-2Sg2r-89">
          <mxGeometry width="50" height="50" relative="1" as="geometry">
            <mxPoint x="512" y="480" as="sourcePoint" />
            <mxPoint x="512" y="463" as="targetPoint" />
          </mxGeometry>
        </mxCell>
        <mxCell id="sZdEJVB9sNK9TB-2Sg2r-94" value="升维线性层" style="rounded=1;whiteSpace=wrap;html=1;fillColor=#dae8fc;strokeColor=#6c8ebf;" vertex="1" parent="1">
          <mxGeometry x="459.99" y="350" width="85" height="20" as="geometry" />
        </mxCell>
        <mxCell id="sZdEJVB9sNK9TB-2Sg2r-95" value="门控线性层" style="rounded=1;whiteSpace=wrap;html=1;fillColor=#dae8fc;strokeColor=#6c8ebf;" vertex="1" parent="1">
          <mxGeometry x="557.5" y="350" width="85" height="20" as="geometry" />
        </mxCell>
        <mxCell id="sZdEJVB9sNK9TB-2Sg2r-96" value="SiLU" style="rounded=1;whiteSpace=wrap;html=1;fillColor=#d5e8d4;strokeColor=#82b366;" vertex="1" parent="1">
          <mxGeometry x="570" y="310" width="60" height="20" as="geometry" />
        </mxCell>
        <mxCell id="sZdEJVB9sNK9TB-2Sg2r-97" value="" style="endArrow=classic;html=1;rounded=0;exitX=0.5;exitY=0;exitDx=0;exitDy=0;entryX=0.5;entryY=1;entryDx=0;entryDy=0;" edge="1" parent="1" source="sZdEJVB9sNK9TB-2Sg2r-89" target="sZdEJVB9sNK9TB-2Sg2r-94">
          <mxGeometry width="50" height="50" relative="1" as="geometry">
            <mxPoint x="512" y="598" as="sourcePoint" />
            <mxPoint x="512" y="580" as="targetPoint" />
          </mxGeometry>
        </mxCell>
        <mxCell id="sZdEJVB9sNK9TB-2Sg2r-100" value="" style="edgeStyle=elbowEdgeStyle;elbow=vertical;endArrow=classic;html=1;curved=0;rounded=0;endSize=8;startSize=8;entryX=0.5;entryY=1;entryDx=0;entryDy=0;exitX=1;exitY=0.5;exitDx=0;exitDy=0;" edge="1" parent="1" source="sZdEJVB9sNK9TB-2Sg2r-89" target="sZdEJVB9sNK9TB-2Sg2r-95">
          <mxGeometry width="50" height="50" relative="1" as="geometry">
            <mxPoint x="600" y="450" as="sourcePoint" />
            <mxPoint x="650" y="400" as="targetPoint" />
            <Array as="points">
              <mxPoint x="610" y="400" />
            </Array>
          </mxGeometry>
        </mxCell>
        <mxCell id="sZdEJVB9sNK9TB-2Sg2r-101" value="" style="endArrow=classic;html=1;rounded=0;entryX=0.5;entryY=1;entryDx=0;entryDy=0;exitX=0.5;exitY=0;exitDx=0;exitDy=0;" edge="1" parent="1" source="sZdEJVB9sNK9TB-2Sg2r-95" target="sZdEJVB9sNK9TB-2Sg2r-96">
          <mxGeometry width="50" height="50" relative="1" as="geometry">
            <mxPoint x="512" y="440" as="sourcePoint" />
            <mxPoint x="512" y="420" as="targetPoint" />
          </mxGeometry>
        </mxCell>
        <mxCell id="sZdEJVB9sNK9TB-2Sg2r-102" value="`\dot`" style="ellipse;whiteSpace=wrap;html=1;aspect=fixed;" vertex="1" parent="1">
          <mxGeometry x="491" y="308.5" width="23" height="23" as="geometry" />
        </mxCell>
        <mxCell id="sZdEJVB9sNK9TB-2Sg2r-103" value="" style="endArrow=classic;html=1;rounded=0;entryX=1;entryY=0.5;entryDx=0;entryDy=0;exitX=0;exitY=0.5;exitDx=0;exitDy=0;" edge="1" parent="1" source="sZdEJVB9sNK9TB-2Sg2r-96" target="sZdEJVB9sNK9TB-2Sg2r-102">
          <mxGeometry width="50" height="50" relative="1" as="geometry">
            <mxPoint x="622" y="360" as="sourcePoint" />
            <mxPoint x="622" y="340" as="targetPoint" />
          </mxGeometry>
        </mxCell>
        <mxCell id="sZdEJVB9sNK9TB-2Sg2r-104" value="" style="endArrow=classic;html=1;rounded=0;exitX=0.5;exitY=0;exitDx=0;exitDy=0;entryX=0.5;entryY=1;entryDx=0;entryDy=0;" edge="1" parent="1" source="sZdEJVB9sNK9TB-2Sg2r-94" target="sZdEJVB9sNK9TB-2Sg2r-102">
          <mxGeometry width="50" height="50" relative="1" as="geometry">
            <mxPoint x="512" y="400" as="sourcePoint" />
            <mxPoint x="512" y="380" as="targetPoint" />
          </mxGeometry>
        </mxCell>
        <mxCell id="sZdEJVB9sNK9TB-2Sg2r-105" value="线性层" style="rounded=1;whiteSpace=wrap;html=1;fillColor=#dae8fc;strokeColor=#6c8ebf;" vertex="1" parent="1">
          <mxGeometry x="460" y="270" width="85" height="20" as="geometry" />
        </mxCell>
        <mxCell id="sZdEJVB9sNK9TB-2Sg2r-106" value="" style="endArrow=classic;html=1;rounded=0;exitX=0.5;exitY=0;exitDx=0;exitDy=0;entryX=0.5;entryY=1;entryDx=0;entryDy=0;" edge="1" parent="1" source="sZdEJVB9sNK9TB-2Sg2r-102" target="sZdEJVB9sNK9TB-2Sg2r-105">
          <mxGeometry width="50" height="50" relative="1" as="geometry">
            <mxPoint x="512" y="360" as="sourcePoint" />
            <mxPoint x="513" y="341" as="targetPoint" />
          </mxGeometry>
        </mxCell>
        <mxCell id="sZdEJVB9sNK9TB-2Sg2r-107" value="" style="verticalLabelPosition=bottom;verticalAlign=top;html=1;shape=mxgraph.flowchart.summing_function;" vertex="1" parent="1">
          <mxGeometry x="491" y="230" width="23" height="23" as="geometry" />
        </mxCell>
        <mxCell id="sZdEJVB9sNK9TB-2Sg2r-108" value="" style="edgeStyle=elbowEdgeStyle;elbow=horizontal;endArrow=classic;html=1;curved=0;rounded=0;endSize=8;startSize=8;entryX=1;entryY=0.5;entryDx=0;entryDy=0;entryPerimeter=0;exitX=1;exitY=0.5;exitDx=0;exitDy=0;" edge="1" parent="1" source="sZdEJVB9sNK9TB-2Sg2r-89" target="sZdEJVB9sNK9TB-2Sg2r-107">
          <mxGeometry width="50" height="50" relative="1" as="geometry">
            <mxPoint x="720" y="440" as="sourcePoint" />
            <mxPoint x="524" y="449" as="targetPoint" />
            <Array as="points">
              <mxPoint x="650" y="320" />
            </Array>
          </mxGeometry>
        </mxCell>
        <mxCell id="sZdEJVB9sNK9TB-2Sg2r-109" value="" style="endArrow=classic;html=1;rounded=0;exitX=0.5;exitY=0;exitDx=0;exitDy=0;entryX=0.5;entryY=1;entryDx=0;entryDy=0;entryPerimeter=0;" edge="1" parent="1" source="sZdEJVB9sNK9TB-2Sg2r-105" target="sZdEJVB9sNK9TB-2Sg2r-107">
          <mxGeometry width="50" height="50" relative="1" as="geometry">
            <mxPoint x="513" y="318" as="sourcePoint" />
            <mxPoint x="512" y="300" as="targetPoint" />
          </mxGeometry>
        </mxCell>
        <mxCell id="sZdEJVB9sNK9TB-2Sg2r-111" value="" style="endArrow=classic;html=1;rounded=0;exitX=0.5;exitY=0;exitDx=0;exitDy=0;exitPerimeter=0;" edge="1" parent="1" source="sZdEJVB9sNK9TB-2Sg2r-107">
          <mxGeometry width="50" height="50" relative="1" as="geometry">
            <mxPoint x="332" y="210" as="sourcePoint" />
            <mxPoint x="503" y="210" as="targetPoint" />
          </mxGeometry>
        </mxCell>
        <mxCell id="sZdEJVB9sNK9TB-2Sg2r-116" value="LLaMA2 Tranformer Block" style="text;html=1;align=center;verticalAlign=middle;resizable=0;points=[];autosize=1;strokeColor=none;fillColor=none;" vertex="1" parent="1">
          <mxGeometry x="339.99" y="730" width="160" height="30" as="geometry" />
        </mxCell>
        <mxCell id="sZdEJVB9sNK9TB-2Sg2r-117" value="" style="verticalLabelPosition=bottom;verticalAlign=top;html=1;shape=mxgraph.flowchart.summing_function;" vertex="1" parent="1">
          <mxGeometry x="359.99" y="233.5" width="23" height="23" as="geometry" />
        </mxCell>
        <mxCell id="sZdEJVB9sNK9TB-2Sg2r-120" value="按元素相加" style="text;html=1;align=center;verticalAlign=middle;resizable=0;points=[];autosize=1;strokeColor=none;fillColor=none;" vertex="1" parent="1">
          <mxGeometry x="379.99" y="230" width="80" height="30" as="geometry" />
        </mxCell>
        <mxCell id="sZdEJVB9sNK9TB-2Sg2r-122" value="按元素相乘" style="text;html=1;align=center;verticalAlign=middle;resizable=0;points=[];autosize=1;strokeColor=none;fillColor=none;" vertex="1" parent="1">
          <mxGeometry x="379.99" y="263.5" width="80" height="30" as="geometry" />
        </mxCell>
        <mxCell id="sZdEJVB9sNK9TB-2Sg2r-123" value="`\dot`" style="ellipse;whiteSpace=wrap;html=1;aspect=fixed;" vertex="1" parent="1">
          <mxGeometry x="359.99" y="267" width="23" height="23" as="geometry" />
        </mxCell>
        <mxCell id="sZdEJVB9sNK9TB-2Sg2r-124" value="" style="verticalLabelPosition=bottom;shadow=0;dashed=0;align=center;html=1;verticalAlign=top;shape=mxgraph.electrical.abstract.multiplier;" vertex="1" parent="1">
          <mxGeometry x="359.99" y="303.5" width="23" height="23" as="geometry" />
        </mxCell>
        <mxCell id="sZdEJVB9sNK9TB-2Sg2r-125" value="矩阵乘法" style="text;html=1;align=center;verticalAlign=middle;resizable=0;points=[];autosize=1;strokeColor=none;fillColor=none;" vertex="1" parent="1">
          <mxGeometry x="384.99" y="300" width="70" height="30" as="geometry" />
        </mxCell>
      </root>
    </mxGraphModel>
  </diagram>
</mxfile>
